<?xml version="1.0" standalone="no"?>
<!DOCTYPE svg PUBLIC "-//W3C//DTD SVG 20010904//EN"
 "http://www.w3.org/TR/2001/REC-SVG-20010904/DTD/svg10.dtd">
<svg version="1.0" xmlns="http://www.w3.org/2000/svg"
 width="355.000000pt" height="355.000000pt" viewBox="0 0 355.000000 355.000000"
 preserveAspectRatio="xMidYMid meet">
<metadata>
Created by potrace 1.11, written by Peter Selinger 2001-2013
</metadata>
<g transform="translate(0.000000,355.000000) scale(0.100000,-0.100000)"
fill="#000000" stroke="none">
<path d="M1870 3469 c-67 -6 -195 -33 -275 -59 -16 -5 -59 -16 -95 -25 -207
-48 -363 -90 -420 -113 -64 -27 -125 -79 -231 -197 -20 -22 -73 -73 -117 -112
-93 -84 -99 -98 -112 -245 -4 -56 -14 -125 -20 -153 -14 -56 -18 -333 -7 -440
3 -38 13 -91 21 -116 8 -25 17 -75 21 -111 l7 -65 -35 -7 c-46 -9 -94 -59
-106 -110 -16 -73 -6 -254 18 -314 65 -163 164 -281 237 -282 12 0 26 -6 31
-12 11 -14 39 -137 49 -208 8 -66 51 -206 85 -277 38 -78 134 -170 272 -260
56 -36 113 -74 127 -83 14 -10 45 -27 68 -39 23 -12 72 -48 108 -81 36 -33 82
-65 102 -71 57 -17 273 -23 345 -9 80 16 102 28 168 92 30 30 88 73 129 96
155 88 184 107 283 191 49 40 100 92 115 115 15 22 30 42 35 44 4 2 7 10 7 18
0 7 9 33 19 56 22 48 67 235 75 316 10 90 15 100 54 112 63 19 83 33 123 85
21 27 43 55 48 61 27 33 63 119 77 185 22 101 22 245 2 284 -23 44 -68 82
-105 90 -28 6 -33 11 -33 35 0 16 5 41 11 57 19 49 19 61 19 403 0 329 -1 350
-13 380 -3 8 -11 35 -17 60 -32 128 -109 236 -235 330 -55 41 -143 90 -162 90
-7 0 -24 24 -38 54 -58 122 -187 216 -320 232 -81 9 -224 11 -315 3z"/>
</g>
</svg>
