<?xml version="1.0" standalone="no"?>
<!DOCTYPE svg PUBLIC "-//W3C//DTD SVG 20010904//EN"
 "http://www.w3.org/TR/2001/REC-SVG-20010904/DTD/svg10.dtd">
<svg version="1.0" xmlns="http://www.w3.org/2000/svg"
 width="175.000000pt" height="175.000000pt" viewBox="0 0 175.000000 175.000000"
 preserveAspectRatio="xMidYMid meet">
<metadata>
Created by potrace 1.11, written by Peter Selinger 2001-2013
</metadata>
<g transform="translate(0.000000,175.000000) scale(0.100000,-0.100000)"
fill="#000000" stroke="none">
<path d="M735 1710 c-3 -5 -74 -25 -158 -45 l-152 -36 -53 -52 c-78 -76 -132
-161 -132 -206 0 -21 -7 -62 -16 -92 -13 -43 -15 -79 -10 -181 l7 -128 -31
-27 c-66 -59 -58 -185 20 -343 16 -31 31 -80 35 -110 21 -181 111 -285 353
-410 58 -30 82 -48 82 -61 0 -18 11 -19 190 -19 183 0 190 1 190 20 0 15 21
30 83 61 224 113 323 223 350 387 6 37 24 96 40 132 39 83 65 184 62 234 -2
21 -15 61 -30 89 -24 46 -26 60 -24 156 2 158 1 166 -15 228 -8 32 -17 74 -20
93 -7 40 -93 159 -146 201 -21 17 -64 36 -110 47 -41 10 -88 26 -105 34 -20
10 -79 18 -180 23 -82 4 -167 9 -188 10 -20 1 -40 -1 -42 -5z"/>
</g>
</svg>
